<svg width="10" height="15" fill="none" xmlns="http://www.w3.org/2000/svg"><path id="Vector" d="M8.53 5.58V3.65C8.53 1.63 6.95 0 5 0 3.04 0 1.46 1.63 1.46 3.65v1.93C.54 6.51 0 7.79 0 9.12c0 2.75 2.24 5 5 5 2.75 0 5-2.25 5-5 0-1.33-.55-2.62-1.47-3.54zM2.05 3.65C2.05 1.95 3.37.58 5 .58c1.62 0 2.94 1.37 2.94 3.07v1.42c-.02 0-.03-.02-.03-.03-.09-.05-.18-.12-.26-.17-.79-.5-1.71-.75-2.65-.75-.95 0-1.87.25-2.66.75-.09.05-.17.12-.26.17 0 .01-.01.03-.03.03V3.65zM5.87 9.7v1.47H4.12V9.7c-.37-.28-.59-.71-.59-1.17 0-.82.66-1.48 1.47-1.48.8 0 1.46.66 1.46 1.48 0 .46-.21.89-.59 1.17z" fill="#04242B" fill-opacity="1" fill-rule="nonzero"/></svg>