<svg width="101" height="30" fill="none" xmlns="http://www.w3.org/2000/svg"><defs><linearGradient id="paint_linear_1_5582_0" x1="1.356" y1="1.297" x2="100.311" y2="30" gradientUnits="userSpaceOnUse"><stop stop-color="#FF4460"/><stop offset=".531" stop-color="#AD00FF"/><stop offset=".927" stop-color="#31CEFF"/></linearGradient></defs><path id="Vector" d="M37.58 30h-3.27V13.97h3.73v10.07l8.48-10.07h3.27V30h-3.73V19.92L37.58 30zm20.85 0H54.7V13.97c.31 0 1.16 0 2.54-.03 1.37-.03 2.32-.03 2.77-.03 5.04 0 7.15 2.26 7.15 5.68 0 1.67-.58 3.08-1.77 4.15-1.19 1.07-2.78 1.62-4.83 1.62-.73 0-1.43-.03-2.13-.1V30zm0-12.52v4.24c.85.09 1.52.12 2.01.12 1.68 0 2.75-.79 2.75-2.25 0-1.44-.92-2.17-2.78-2.17-.52 0-1.16.03-1.98.06zM73.87 30h-3.26V13.97h3.72v10.07l8.49-10.07h3.26V30h-3.72V19.92L73.87 30zM10.21 2.68H5.29V7.6h4.92V2.68zM5.29 7.6H.38v4.92h4.91V7.6zm39.22 0h-4.92v4.92h4.92V7.6zm-34.3 4.92H5.29v4.91h4.92v-4.91zm8.12-4.92h4.92V2.68h-4.92V7.6zm-3.51-.81V2.68h3.58L17.26 0h-4.62L7.36 12.52h5.1l2.36-5.73zm5.64.81h-5.31l4.03 9.83H5.29L0 30h5.29l3.12-7.65h12.78L24.31 30h5.6L20.46 7.6zm7.01 4.92h4.92V7.6h-4.92v4.92zm-4.91 4.91h4.91v-4.91h-4.91v4.91zm72.83-4.91h4.92V7.6h-4.92v4.92zm-6.74 6.36h4.91v-4.91h-4.91v4.91z" fill="url(#paint_linear_1_5582_0)" fill-opacity="1" fill-rule="nonzero"/></svg>