<svg width="12" height="12" fill="none" xmlns="http://www.w3.org/2000/svg"><path id="Vector" d="M11 0H8.41c-.9 0-1.34 1.08-.71 1.7l.75.76L5.62 5.3c-.29.29-.29.78 0 1.07.29.29.76.29 1.05 0l2.84-2.84.78.76c.62.62 1.71.19 1.71-.71V1c0-.55-.46-1-1-1z" fill="#FFF" fill-opacity="1" fill-rule="nonzero"/><path id="Vector" d="M11.5 6c-.29 0-.5.21-.5.5V9c0 1.09-.91 2-2 2H3c-1.1 0-2-.91-2-2V3c0-1.1.9-2 2-2h2.5c.28 0 .5-.22.5-.5 0-.29-.22-.5-.5-.5H3C1.33 0 0 1.33 0 3v6c0 1.66 1.33 3 3 3h6c1.66 0 3-1.34 3-3V6.5c0-.29-.22-.5-.5-.5z" fill="#FFF" fill-opacity="1" fill-rule="nonzero"/></svg>