<svg width="101.000000" height="30.000000" viewBox="0 0 101 30" fill="none" xmlns="http://www.w3.org/2000/svg" xmlns:xlink="http://www.w3.org/1999/xlink">
	<desc>
			Created with Pixso.
	</desc>
	<defs>
		<linearGradient id="paint_linear_1_5582_0" x1="1.355560" y1="1.297302" x2="100.311371" y2="30.000000" gradientUnits="userSpaceOnUse">
			<stop stop-color="#FF4460"/>
			<stop offset="0.531250" stop-color="#AD00FF"/>
			<stop offset="0.927083" stop-color="#31CEFF"/>
		</linearGradient>
	</defs>
	<path id="Vector" d="M37.58 30L34.31 30L34.31 13.97L38.04 13.97L38.04 24.04L46.52 13.97L49.79 13.97L49.79 30L46.06 30L46.06 19.92L37.58 30ZM58.43 30L54.7 30L54.7 13.97C55.01 13.97 55.86 13.97 57.24 13.94C58.61 13.91 59.56 13.91 60.01 13.91C65.05 13.91 67.16 16.17 67.16 19.59C67.16 21.26 66.58 22.67 65.39 23.74C64.2 24.81 62.61 25.36 60.56 25.36C59.83 25.36 59.13 25.33 58.43 25.26L58.43 30ZM58.43 17.48L58.43 21.72C59.28 21.81 59.95 21.84 60.44 21.84C62.12 21.84 63.19 21.05 63.19 19.59C63.19 18.15 62.27 17.42 60.41 17.42C59.89 17.42 59.25 17.45 58.43 17.48ZM73.87 30L70.61 30L70.61 13.97L74.33 13.97L74.33 24.04L82.82 13.97L86.08 13.97L86.08 30L82.36 30L82.36 19.92L73.87 30ZM10.21 2.68L5.29 2.68L5.29 7.6L10.21 7.6L10.21 2.68ZM5.29 7.6L0.38 7.6L0.38 12.52L5.29 12.52L5.29 7.6ZM44.51 7.6L39.59 7.6L39.59 12.52L44.51 12.52L44.51 7.6ZM10.21 12.52L5.29 12.52L5.29 17.43L10.21 17.43L10.21 12.52ZM18.33 7.6L23.25 7.6L23.25 2.68L18.33 2.68L18.33 7.6ZM14.82 6.79L14.82 2.68L18.4 2.68L17.26 0L12.64 0L7.36 12.52L12.46 12.52L14.82 6.79ZM20.46 7.6L15.15 7.6L19.18 17.43L10.42 17.43L5.29 17.43L0 30L5.29 30L8.41 22.35L21.19 22.35L24.31 30L29.91 30L20.46 7.6ZM27.47 12.52L32.39 12.52L32.39 7.6L27.47 7.6L27.47 12.52ZM22.56 17.43L27.47 17.43L27.47 12.52L22.56 12.52L22.56 17.43ZM95.39 12.52L100.31 12.52L100.31 7.6L95.39 7.6L95.39 12.52ZM88.65 18.88L93.56 18.88L93.56 13.97L88.65 13.97L88.65 18.88Z" fill="url(#paint_linear_1_5582_0)" fill-opacity="1.000000" fill-rule="nonzero"/>
</svg>
