<svg width="10.000000" height="10.000000" viewBox="0 0 10 10" fill="none" xmlns="http://www.w3.org/2000/svg" xmlns:xlink="http://www.w3.org/1999/xlink">
	<desc>
			Created with Pixso.
	</desc>
	<defs/>
	<path id="Закрыть мини" d="M6.04 4.98L9.75 1.27C10.04 0.98 10.04 0.5 9.75 0.21C9.46 -0.08 8.99 -0.08 8.69 0.21L4.98 3.92L1.27 0.21C0.98 -0.08 0.5 -0.08 0.21 0.21C-0.08 0.5 -0.08 0.98 0.21 1.27L3.92 4.98L0.21 8.69C-0.08 8.98 -0.08 9.46 0.21 9.75C0.5 10.04 0.98 10.04 1.27 9.75L4.98 6.04L8.69 9.76C8.98 10.05 9.46 10.05 9.75 9.76C10.04 9.47 10.04 8.99 9.75 8.7L6.04 4.98Z" fill="#B3BACF" fill-opacity="1.000000" fill-rule="nonzero"/>
</svg>
