<svg width="23.000000" height="19.000000" viewBox="0 0 23 19" fill="none" xmlns="http://www.w3.org/2000/svg" xmlns:xlink="http://www.w3.org/1999/xlink">
	<desc>
			Created with Pixso.
	</desc>
	<defs/>
	<path id="Vector" d="M13.23 0C12.73 0.02 12.22 0.15 11.76 0.38C11.74 0.39 11.73 0.4 11.72 0.4L10.3 1.22C10.28 1.22 10.27 1.22 10.25 1.22L0.75 1.22C0.34 1.22 0 1.55 0 1.96C-0.01 2.38 0.32 2.72 0.74 2.72C0.74 2.72 0.75 2.72 0.75 2.72L7.13 2.72L6.81 2.86C6.79 2.86 6.78 2.87 6.76 2.88C5.93 3.29 5.54 4.18 5.63 4.98C5.71 5.77 6.28 6.57 7.19 6.8C7.55 6.89 7.94 6.94 8.38 6.94C10.56 6.94 12.71 6.26 13.34 6.05C13.76 6.51 15.82 8.81 16.5 9.52C17 10.03 17.05 10.52 16.92 10.88C16.79 11.23 16.5 11.5 15.87 11.51C15.51 11.51 15.21 11.76 15.14 12.11C14.95 13.01 14.62 13.14 14.28 13.23C13.94 13.31 13.62 13.24 13.62 13.24C13.22 13.13 12.81 13.36 12.7 13.76C12.69 13.82 12.68 13.88 12.68 13.94C12.68 13.94 12.65 14.32 12.46 14.66C12.27 14.99 12.07 15.27 11.18 15.17C10.79 15.13 10.43 15.4 10.36 15.79C10.26 16.36 9.95 16.61 9.48 16.69C9.01 16.78 8.38 16.63 7.83 16.08C7.12 15.38 4.54 12.75 3.38 11.55C2.87 11.02 2.16 10.73 1.41 10.73L0.75 10.73C0.34 10.72 0 11.05 0 11.46C-0.01 11.88 0.32 12.22 0.74 12.22C0.74 12.22 0.75 12.22 0.75 12.22L1.41 12.22C1.75 12.22 2.07 12.36 2.3 12.6C3.47 13.79 6.03 16.4 6.78 17.14C7.64 17.99 8.75 18.34 9.75 18.16C10.56 18.01 11.28 17.44 11.63 16.63C12.49 16.56 13.14 16.17 13.54 15.7C13.55 15.7 13.56 15.7 13.57 15.7C13.57 15.7 15.83 15.74 17.09 15.7C17.96 15.67 18.84 15.37 19.62 14.69C19.97 14.39 20.39 14.21 20.82 14.21L21.25 14.21C21.67 14.22 22.01 13.89 22.01 13.47C22.02 13.06 21.69 12.72 21.27 12.71C21.27 12.71 21.26 12.71 21.25 12.71L20.82 12.71C19.99 12.71 19.22 13.04 18.63 13.56C18.08 14.04 17.65 14.18 17.04 14.2C16.63 14.21 16.06 14.21 15.52 14.21C15.91 13.89 16.25 13.43 16.46 12.82C17.32 12.62 18.06 12.14 18.33 11.38C18.67 10.44 18.41 9.31 17.57 8.46C16.95 7.82 14.14 4.69 14.14 4.69C13.94 4.47 13.63 4.39 13.34 4.48C13.34 4.48 10.49 5.43 8.38 5.43C8.07 5.43 7.8 5.4 7.56 5.34C7.26 5.26 7.15 5.07 7.12 4.82C7.1 4.57 7.18 4.35 7.43 4.22L9.78 3.24C9.81 3.23 9.84 3.22 9.87 3.2L12.44 1.71C13 1.43 13.61 1.41 14.15 1.63L17.53 2.98C17.92 3.13 18.33 3.21 18.74 3.21L21.26 3.21C21.67 3.21 22.01 2.88 22.02 2.47C22.02 2.05 21.69 1.71 21.28 1.71C21.27 1.71 21.26 1.71 21.26 1.71L18.74 1.71C18.51 1.71 18.29 1.67 18.09 1.58L14.71 0.23C14.23 0.06 13.73 -0.03 13.23 0Z" fill="#04242B" fill-opacity="1.000000" fill-rule="nonzero"/>
</svg>
