<svg width="24.000000" height="21.000000" viewBox="0 0 24 21" fill="none" xmlns="http://www.w3.org/2000/svg" xmlns:xlink="http://www.w3.org/1999/xlink">
	<desc>
			Created with Pixso.
	</desc>
	<defs/>
	<path id="Vector" d="M21.23 0C21.04 0 20.85 0.08 20.72 0.22L2.21 18.72C1.91 19.01 1.9 19.48 2.19 19.78C2.48 20.08 2.95 20.09 3.25 19.8C3.26 19.8 3.27 19.79 3.27 19.78L8.45 14.6C9.34 15.56 10.6 16.17 12 16.17C14.66 16.17 16.83 14 16.83 11.34C16.83 9.94 16.23 8.68 15.27 7.79L17.52 5.54C19.95 6.96 21.83 9.25 22.52 11.94C22.61 12.28 22.91 12.5 23.25 12.5C23.31 12.5 23.37 12.5 23.43 12.48C23.84 12.38 24.08 11.97 23.97 11.57C23.2 8.57 21.23 6.04 18.64 4.42L21.78 1.28C22.07 0.99 22.08 0.52 21.79 0.22C21.64 0.07 21.44 -0.01 21.23 0ZM11.99 2.5C6.4 2.5 1.37 6.31 0.02 11.57C-0.09 11.97 0.15 12.38 0.56 12.48C0.96 12.58 1.37 12.34 1.47 11.94C2.63 7.41 7.16 4 11.99 4C12.85 4 13.69 4.11 14.51 4.31L15.74 3.08C14.54 2.7 13.28 2.5 11.99 2.5ZM12 6.5C9.33 6.5 7.16 8.67 7.16 11.34C7.16 11.44 7.17 11.54 7.17 11.64L12.31 6.51C12.2 6.51 12.1 6.5 12 6.5Z" fill="#919AB6" fill-opacity="1.000000" fill-rule="nonzero"/>
</svg>
