<svg width="16.000000" height="20.000000" viewBox="0 0 16 20" fill="none" xmlns="http://www.w3.org/2000/svg" xmlns:xlink="http://www.w3.org/1999/xlink">
	<desc>
			Created with Pixso.
	</desc>
	<defs/>
	<path id="Vector" d="M2.25 0C1.01 0 0 1.01 0 2.25L0 17.75C0 18.98 1.01 20 2.25 20L13.75 20C14.98 20 16 18.98 16 17.75L16 2.25C16 1.01 14.98 0 13.75 0L2.25 0ZM2.25 1.5L13.75 1.5C14.17 1.5 14.5 1.82 14.5 2.25L14.5 17.75C14.5 18.17 14.17 18.5 13.75 18.5L2.25 18.5C1.82 18.5 1.5 18.17 1.5 17.75L1.5 2.25C1.5 1.82 1.82 1.5 2.25 1.5ZM4.75 4C4.33 3.99 3.99 4.32 3.99 4.74C3.98 5.15 4.31 5.49 4.73 5.5C4.73 5.5 4.74 5.5 4.75 5.5L7.25 5.5C7.66 5.5 8 5.17 8 4.75C8.01 4.34 7.68 4 7.26 4C7.26 4 7.25 4 7.25 4L4.75 4ZM4.75 8.5C4.33 8.49 3.99 8.82 3.99 9.24C3.98 9.65 4.31 9.99 4.73 10C4.73 10 4.74 10 4.75 10L11.25 10C11.66 10 12 9.67 12 9.25C12.01 8.84 11.68 8.5 11.26 8.5C11.26 8.5 11.25 8.5 11.25 8.5L4.75 8.5ZM4.75 11.5C4.33 11.49 3.99 11.82 3.99 12.24C3.98 12.65 4.31 12.99 4.73 13C4.73 13 4.74 13 4.75 13L11.25 13C11.66 13 12 12.67 12 12.25C12.01 11.84 11.68 11.5 11.26 11.5C11.26 11.5 11.25 11.5 11.25 11.5L4.75 11.5ZM4.75 14.5C4.33 14.49 3.99 14.82 3.99 15.24C3.98 15.65 4.31 15.99 4.73 16C4.73 16 4.74 16 4.75 16L9.25 16C9.66 16 10 15.67 10 15.25C10.01 14.84 9.68 14.5 9.26 14.5C9.26 14.5 9.25 14.5 9.25 14.5L4.75 14.5Z" fill="#04242B" fill-opacity="1.000000" fill-rule="nonzero"/>
</svg>
