<svg width="20.000000" height="20.000000" viewBox="0 0 20 20" fill="none" xmlns="http://www.w3.org/2000/svg" xmlns:xlink="http://www.w3.org/1999/xlink">
	<desc>
			Created with Pixso.
	</desc>
	<defs/>
	<path id="Vector" d="M10 0C4.48 0 0 4.48 0 10C0 15.51 4.48 20 10 20C15.51 20 20 15.51 20 10C20 4.48 15.51 0 10 0ZM10 1.5C14.7 1.5 18.5 5.29 18.5 10C18.5 14.7 14.7 18.5 10 18.5C5.29 18.5 1.5 14.7 1.5 10C1.5 5.29 5.29 1.5 10 1.5ZM10 4.5C8.34 4.5 7 5.85 7 7.5L7 7.75C6.99 8.16 7.32 8.5 7.74 8.5C8.15 8.51 8.49 8.18 8.5 7.77C8.5 7.76 8.5 7.75 8.5 7.75L8.5 7.5C8.5 6.66 9.16 6 10 6C10.83 6 11.5 6.66 11.5 7.5C11.5 8.66 11.19 8.81 10.66 9.23C10.39 9.44 10.04 9.68 9.74 10.09C9.44 10.5 9.25 11.06 9.25 11.75C9.24 12.16 9.57 12.5 9.99 12.5C10.4 12.51 10.74 12.18 10.75 11.77C10.75 11.76 10.75 11.75 10.75 11.75C10.75 11.32 10.83 11.14 10.95 10.98C11.07 10.81 11.29 10.64 11.58 10.41C12.17 9.95 13 9.08 13 7.5C13 5.85 11.65 4.5 10 4.5ZM10 14C9.45 14 9 14.45 9 15C9 15.54 9.45 16 10 16C10.54 16 11 15.54 11 15C11 14.45 10.54 14 10 14Z" fill="#04242B" fill-opacity="1.000000" fill-rule="nonzero"/>
</svg>
