<svg width="20.000000" height="17.000000" viewBox="0 0 20 17" fill="none" xmlns="http://www.w3.org/2000/svg" xmlns:xlink="http://www.w3.org/1999/xlink">
	<desc>
			Created with Pixso.
	</desc>
	<defs/>
	<path id="Vector" d="M17.63 0C17.46 0.01 17.28 0.03 17.11 0.09L1.61 4.69C0.66 4.98 0 5.86 0 6.85L0 9.11C0 10.11 0.66 10.99 1.61 11.27L4.11 12.01C3.88 13.9 4.98 15.75 6.87 16.31C8.75 16.87 10.67 15.91 11.51 14.21L17.11 15.87C18.53 16.29 20 15.2 20 13.71L20 2.25C20 1.13 19.17 0.24 18.16 0.04C17.99 0.01 17.82 -0.01 17.63 0ZM17.71 1.49C18.14 1.47 18.5 1.79 18.5 2.25L18.5 13.73C18.5 14.25 18.03 14.59 17.53 14.45L2.03 9.84C1.71 9.74 1.5 9.45 1.5 9.12L1.5 6.86C1.5 6.52 1.71 6.23 2.03 6.14L17.53 1.53C17.59 1.51 17.66 1.5 17.71 1.49ZM5.54 12.44L10.08 13.79C9.5 14.72 8.39 15.21 7.29 14.88C6.17 14.55 5.51 13.54 5.54 12.44Z" fill="#04242B" fill-opacity="1.000000" fill-rule="nonzero"/>
</svg>
