<svg width="19.000000" height="23.000000" viewBox="0 0 19 23" fill="none" xmlns="http://www.w3.org/2000/svg" xmlns:xlink="http://www.w3.org/1999/xlink">
	<desc>
			Created with Pixso.
	</desc>
	<defs/>
	<path id="Vector" d="M9.52 0C9.33 -0.01 9.14 0.06 9 0.19C9 0.19 5.24 3.5 0.75 3.5C0.33 3.5 0 3.83 0 4.25L0 10.38C0 13.72 1.54 19.21 9.2 22.43C9.39 22.52 9.6 22.52 9.79 22.43C17.45 19.21 19 13.72 19 10.38L19 4.25C19 3.83 18.66 3.5 18.25 3.5C13.75 3.5 10 0.19 10 0.19C9.87 0.07 9.7 0 9.52 0ZM9.5 1.71C10.53 2.54 13.55 4.67 17.5 4.94L17.5 10.38C17.5 13.25 16.39 17.88 9.5 20.91C2.6 17.88 1.5 13.25 1.5 10.38L1.5 4.94C5.44 4.67 8.46 2.54 9.5 1.71ZM13.23 7.99C13.04 8 12.85 8.08 12.71 8.22L8.25 12.68L6.28 10.72C5.99 10.41 5.51 10.41 5.21 10.7C4.91 10.99 4.91 11.46 5.2 11.76C5.2 11.76 5.21 11.77 5.21 11.78L7.71 14.28C8.01 14.57 8.49 14.57 8.78 14.28L13.78 9.28C14.07 8.99 14.08 8.51 13.79 8.22C13.64 8.07 13.44 7.98 13.23 7.99Z" fill="#04242B" fill-opacity="1.000000" fill-rule="nonzero"/>
</svg>
