<svg width="21.000000" height="18.000000" viewBox="0 0 21 18" fill="none" xmlns="http://www.w3.org/2000/svg" xmlns:xlink="http://www.w3.org/1999/xlink">
	<desc>
			Created with Pixso.
	</desc>
	<defs/>
	<path id="Vector" d="M0.75 0C0.33 0 0 0.33 0 0.75L0 8L0 15.25C0 15.66 0.33 16 0.75 16L8.5 16C9.2 16 9.75 16.54 9.75 17.25C9.75 17.66 10.09 17.99 10.5 17.99C10.91 17.98 11.24 17.65 11.25 17.25C11.25 16.54 11.79 16 12.5 16L20.25 16C20.66 16 21 15.66 21 15.25L21 8L21 0.75C21 0.33 20.66 0 20.25 0L12.5 0C11.71 0 11 0.35 10.5 0.89C9.99 0.35 9.29 0 8.5 0L0.75 0ZM1.5 1.5L8.5 1.5C9.2 1.5 9.75 2.04 9.75 2.75L9.75 14.83C9.37 14.64 8.95 14.5 8.5 14.5L1.5 14.5L1.5 8L1.5 1.5ZM12.5 1.5L19.5 1.5L19.5 8L19.5 14.5L12.5 14.5C12.04 14.5 11.62 14.64 11.25 14.83L11.25 2.75C11.25 2.75 11.25 2.75 11.25 2.75C11.25 2.04 11.79 1.5 12.5 1.5ZM17.24 2.99C17.04 2.99 16.86 3.08 16.71 3.22L15.5 4.43L14.28 3.22C14.13 3.07 13.94 2.99 13.74 2.99C13.32 2.99 12.99 3.32 12.99 3.74C12.99 3.94 13.07 4.13 13.21 4.27L14.44 5.5L13.21 6.72C12.91 7 12.91 7.47 13.2 7.77C13.49 8.08 13.96 8.08 14.25 7.79C14.26 7.79 14.27 7.78 14.28 7.77L15.5 6.56L16.71 7.77C17 8.08 17.48 8.08 17.78 7.79C18.08 7.5 18.08 7.04 17.79 6.74C17.79 6.73 17.78 6.72 17.78 6.72L16.55 5.5L17.78 4.27C18.08 3.99 18.08 3.52 17.79 3.22C17.65 3.06 17.45 2.98 17.24 2.99ZM7.73 3.49C7.54 3.5 7.35 3.58 7.21 3.72L4.75 6.18L3.78 5.22C3.49 4.91 3.01 4.91 2.71 5.2C2.41 5.49 2.41 5.95 2.7 6.25C2.7 6.26 2.71 6.27 2.71 6.27L4.21 7.77C4.51 8.07 4.99 8.07 5.28 7.77L8.28 4.77C8.57 4.49 8.58 4.01 8.29 3.72C8.15 3.56 7.94 3.48 7.73 3.49ZM3.25 9C2.83 8.99 2.49 9.32 2.49 9.74C2.48 10.15 2.81 10.49 3.23 10.5C3.23 10.5 3.24 10.5 3.25 10.5L7.75 10.5C8.16 10.5 8.5 10.17 8.5 9.75C8.51 9.34 8.18 9 7.76 9C7.76 9 7.75 9 7.75 9L3.25 9ZM13.25 9C12.83 8.99 12.49 9.32 12.49 9.74C12.48 10.15 12.81 10.49 13.23 10.5C13.23 10.5 13.24 10.5 13.25 10.5L17.75 10.5C18.16 10.5 18.5 10.17 18.5 9.75C18.51 9.34 18.18 9 17.76 9C17.76 9 17.75 9 17.75 9L13.25 9ZM3.25 11.5C2.83 11.49 2.49 11.82 2.49 12.24C2.48 12.65 2.81 12.99 3.23 13C3.23 13 3.24 13 3.25 13L7.75 13C8.16 13 8.5 12.67 8.5 12.25C8.51 11.84 8.18 11.5 7.76 11.5C7.76 11.5 7.75 11.5 7.75 11.5L3.25 11.5ZM13.25 11.5C12.83 11.49 12.49 11.82 12.49 12.24C12.48 12.65 12.81 12.99 13.23 13C13.23 13 13.24 13 13.25 13L17.75 13C18.16 13 18.5 12.67 18.5 12.25C18.51 11.84 18.18 11.5 17.76 11.5C17.76 11.5 17.75 11.5 17.75 11.5L13.25 11.5Z" fill="#04242B" fill-opacity="1.000000" fill-rule="nonzero"/>
</svg>
