<svg width="21.000000" height="19.000000" viewBox="0 0 21 19" fill="none" xmlns="http://www.w3.org/2000/svg" xmlns:xlink="http://www.w3.org/1999/xlink">
	<desc>
			Created with Pixso.
	</desc>
	<defs/>
	<path id="Vector" d="M4.01 0C2.69 0 1.61 0.89 0.97 2.15C0.33 3.41 0.01 5.08 0.01 7C0.01 8.77 0.38 10.45 1.15 11.75C1.22 11.87 1.31 11.96 1.39 12.07C0.77 12.72 0.29 13.16 0.29 13.16C-0.04 13.41 -0.1 13.89 0.15 14.21C0.4 14.54 0.87 14.61 1.2 14.36C1.21 14.35 1.23 14.33 1.24 14.33C1.24 14.33 1.76 13.86 2.45 13.18C3.1 13.68 3.87 14 4.76 14C6.61 14 8.33 13.06 9.73 11.82C10.22 12.21 10.8 12.5 11.51 12.5C12.39 12.5 13.12 12.04 13.64 11.48C14.17 10.91 14.54 10.22 14.85 9.57C15.03 9.18 15.15 8.89 15.29 8.56C15.31 8.66 15.32 8.73 15.33 8.84C15.4 9.35 15.47 9.89 15.66 10.39C15.75 10.63 15.87 10.88 16.09 11.1C16.3 11.32 16.65 11.5 17.01 11.5C17.48 11.5 17.92 11.2 18.14 10.9C18.36 10.6 18.47 10.31 18.6 10.02C18.86 9.43 19.13 8.83 19.74 8.32C20.06 8.06 20.1 7.58 19.84 7.27C19.57 6.95 19.1 6.91 18.78 7.17C17.89 7.91 17.49 8.81 17.23 9.41C17.15 9.6 17.1 9.68 17.05 9.79C16.96 9.52 16.88 9.11 16.82 8.66C16.76 8.17 16.72 7.66 16.63 7.22C16.58 7 16.53 6.79 16.4 6.56C16.27 6.33 15.94 6 15.51 6C15 6 14.77 6.31 14.62 6.52C14.47 6.73 14.36 6.96 14.24 7.22C14.01 7.72 13.78 8.33 13.5 8.93C13.22 9.52 12.89 10.08 12.54 10.46C12.2 10.83 11.89 11 11.51 11C11.21 11 10.97 10.9 10.75 10.75C12.06 9.27 13.01 7.57 13.01 6C13.01 5.45 12.85 4.89 12.49 4.39C12.13 3.91 11.51 3.5 10.76 3.5C9.84 3.5 9.03 4.05 8.6 4.83C8.17 5.62 8.01 6.6 8.01 7.75C8.01 8.64 8.23 9.7 8.73 10.62C7.51 11.69 6.09 12.5 4.76 12.5C4.25 12.5 3.81 12.35 3.42 12.08C5.06 10.18 7.01 7.28 7.01 3.75C7.01 3.12 6.88 2.29 6.45 1.51C6.03 0.73 5.17 0 4.01 0ZM4.01 1.5C4.6 1.5 4.88 1.76 5.14 2.23C5.4 2.7 5.51 3.37 5.51 3.75C5.51 6.59 3.86 9.14 2.41 10.89C1.85 9.91 1.51 8.51 1.51 7C1.51 5.25 1.82 3.78 2.31 2.83C2.79 1.89 3.33 1.5 4.01 1.5ZM10.76 5C11.01 5 11.14 5.08 11.28 5.28C11.42 5.47 11.51 5.79 11.51 6C11.51 6.87 10.83 8.21 9.87 9.43C9.66 8.87 9.51 8.25 9.51 7.75C9.51 6.75 9.68 5.99 9.92 5.56C10.16 5.12 10.35 5 10.76 5ZM0.76 17.5C0.35 17.49 0.01 17.82 0 18.23C-0.01 18.65 0.32 18.99 0.74 19C0.74 19 0.75 19 0.76 19L19.26 19C19.67 19 20.01 18.67 20.02 18.25C20.02 17.84 19.69 17.5 19.28 17.5C19.27 17.5 19.26 17.5 19.26 17.5L0.76 17.5Z" fill="#04242B" fill-opacity="1.000000" fill-rule="nonzero"/>
</svg>
