<svg width="15.000000" height="22.000000" viewBox="0 0 15 22" fill="none" xmlns="http://www.w3.org/2000/svg" xmlns:xlink="http://www.w3.org/1999/xlink">
	<desc>
			Created with Pixso.
	</desc>
	<defs/>
	<path id="Vector" d="M7.5 0C6.95 0 6.5 0.45 6.5 1C6.5 1.25 6.59 1.5 6.78 1.69L5.58 3.23L3.45 1.81C3.62 1.29 3.33 0.72 2.81 0.54C2.7 0.51 2.6 0.5 2.5 0.5C1.95 0.5 1.5 0.95 1.5 1.5C1.5 1.85 1.69 2.18 2 2.36L2.45 7.35C2.51 8 3.06 8.5 3.7 8.5L4.5 8.5L4.5 8.75C4.5 11.45 3.63 12.68 2.69 13.7C2.22 14.21 1.72 14.66 1.29 15.19C0.85 15.73 0.5 16.41 0.5 17.24C0.5 17.69 0.62 18.08 0.79 18.4C0.32 18.77 0 19.34 0 19.99C0 21.08 0.9 21.99 2 21.99L13 21.99C14.09 21.99 15 21.08 15 19.99C15 19.34 14.67 18.77 14.2 18.4C14.37 18.08 14.5 17.69 14.5 17.24C14.5 16.41 14.13 15.73 13.71 15.19C13.27 14.66 12.77 14.21 12.3 13.7C11.36 12.68 10.5 11.45 10.5 8.75L10.5 8.5L11.29 8.5C11.93 8.5 12.48 8 12.54 7.36L12.99 2.37C13.47 2.1 13.64 1.49 13.37 1C13.19 0.69 12.86 0.5 12.5 0.5C11.95 0.5 11.5 0.95 11.5 1.5C11.5 1.6 11.51 1.71 11.54 1.81L9.41 3.24L8.21 1.7C8.59 1.3 8.59 0.66 8.19 0.28C8 0.1 7.75 0 7.5 0ZM7.5 3.22L8.66 4.7C8.9 5.02 9.33 5.08 9.66 4.87L11.36 3.74L11.06 7L3.93 7L3.63 3.74L5.33 4.87C5.66 5.09 6.09 5.02 6.34 4.7L7.5 3.22ZM6 8.5L9 8.5L9 8.75C9 11.79 10.13 13.56 11.19 14.72C11.72 15.29 12.22 15.74 12.54 16.14C12.85 16.53 13 16.81 13 17.24C13 17.58 12.84 17.81 12.66 17.99L2.33 17.99C2.15 17.81 2 17.58 2 17.24C2 16.81 2.13 16.52 2.45 16.14C2.78 15.75 3.27 15.29 3.8 14.72C4.86 13.56 6 11.79 6 8.75L6 8.5ZM2 19.49L13 19.49C13.28 19.49 13.5 19.7 13.5 19.99C13.5 20.27 13.28 20.49 13 20.49L2 20.49C1.71 20.49 1.5 20.27 1.5 19.99C1.5 19.7 1.71 19.49 2 19.49Z" fill="#04242B" fill-opacity="1.000000" fill-rule="nonzero"/>
</svg>
