<svg width="18.000000" height="18.000000" viewBox="0 0 18 18" fill="none" xmlns="http://www.w3.org/2000/svg" xmlns:xlink="http://www.w3.org/1999/xlink">
	<desc>
			Created with Pixso.
	</desc>
	<defs/>
	<path id="Vector" d="M2.25 0C1.07 0 0.1 0.93 0.01 2.08C0 2.14 0 2.19 0 2.25L0 3.75L0 4.5L0 15.75C0 16.98 1.01 18 2.25 18L15.75 18C16.98 18 18 16.98 18 15.75L18 5.25C18 4.01 16.98 3 15.75 3L2.25 3C1.82 3 1.5 2.67 1.5 2.25C1.5 1.82 1.82 1.5 2.25 1.5L14.75 1.5C15.16 1.5 15.5 1.17 15.5 0.75C15.51 0.34 15.18 0 14.76 0C14.76 0 14.75 0 14.75 0L2.25 0ZM1.5 4.5L2.25 4.5L15.75 4.5C16.17 4.5 16.5 4.82 16.5 5.25L16.5 15.75C16.5 16.17 16.17 16.5 15.75 16.5L2.25 16.5C1.82 16.5 1.5 16.17 1.5 15.75L1.5 4.5ZM13.75 9C13.05 9 12.5 9.56 12.5 10.25C12.5 10.93 13.05 11.5 13.75 11.5C14.44 11.5 15 10.93 15 10.25C15 9.56 14.44 9 13.75 9Z" fill="#04242B" fill-opacity="1.000000" fill-rule="nonzero"/>
</svg>
