<svg width="22.000000" height="20.000000" viewBox="0 0 22 20" fill="none" xmlns="http://www.w3.org/2000/svg" xmlns:xlink="http://www.w3.org/1999/xlink">
	<desc>
			Created with Pixso.
	</desc>
	<defs/>
	<path id="Vector" d="M5.92 0C4.42 0 2.82 0.59 1.72 1.8C-0.58 4.09 -0.58 7.9 1.72 10.3C3.82 12.4 10.42 18.79 10.42 18.79C10.72 19.1 11.22 19.1 11.42 18.79C11.42 18.79 12.42 17.79 13.42 16.9C14.52 17.9 15.42 18.79 15.42 18.79C15.72 19.1 16.12 19.1 16.42 18.79C16.42 18.79 19.82 15.6 20.92 14.5C22.32 13.1 22.32 10.9 20.92 9.59C20.92 9.59 20.82 9.59 20.82 9.5C22.52 7.19 22.22 3.9 20.12 1.8C17.82 -0.5 14.02 -0.5 11.62 1.8C11.32 2.09 11.12 2.5 10.82 2.8C10.62 2.5 10.42 2.09 10.02 1.8C9.02 0.59 7.42 0 5.92 0ZM5.92 1.5C7.12 1.5 8.22 1.9 9.12 2.8C9.72 3.4 10.22 4.5 10.22 4.5C10.42 4.9 10.82 5 11.22 4.9C11.42 4.8 11.52 4.69 11.62 4.5C11.62 4.5 12.12 3.4 12.72 2.8C14.52 1 17.32 1 19.12 2.8C20.72 4.4 20.82 6.9 19.52 8.69C18.32 8.3 16.92 8.59 15.92 9.5C15.22 8.8 14.32 8.5 13.42 8.5C12.52 8.5 11.62 8.8 10.92 9.5C9.52 10.9 9.52 13.1 10.92 14.4C11.22 14.7 11.82 15.3 12.32 15.8C11.72 16.4 11.12 16.9 10.92 17.2C10.22 16.5 4.62 11.1 2.72 9.19C0.92 7.4 0.92 4.59 2.72 2.8C3.62 1.9 4.72 1.5 5.92 1.5ZM13.42 10C13.92 10 14.42 10.2 14.82 10.6C14.92 10.7 15.32 11.2 15.32 11.2C15.52 11.5 16.02 11.6 16.32 11.4C16.42 11.3 16.42 11.3 16.52 11.2C16.52 11.2 16.82 10.8 17.02 10.6C17.82 9.8 19.02 9.8 19.82 10.6C20.62 11.4 20.62 12.6 19.82 13.4C18.92 14.3 16.52 16.6 15.92 17.2C15.32 16.6 12.92 14.3 12.02 13.4C11.22 12.6 11.22 11.4 12.02 10.6C12.42 10.2 12.92 10 13.42 10Z" fill="#04242B" fill-opacity="1.000000" fill-rule="nonzero"/>
</svg>
