<svg width="60.000000" height="60.000000" viewBox="0 0 60 60" fill="none" xmlns="http://www.w3.org/2000/svg" xmlns:xlink="http://www.w3.org/1999/xlink">
		<linearGradient id="paint_linear_1_12722_0" x1="0.810818" y1="2.594597" x2="60.000004" y2="60.000015" gradientUnits="userSpaceOnUse">
			<stop stop-color="#FF4460"/>
			<stop offset="0.531250" stop-color="#AD00FF"/>
			<stop offset="0.927083" stop-color="#31CEFF"/>
		</linearGradient>
		<linearGradient id="paint_linear_1_12723_0" x1="0.810814" y1="6.910446" x2="60.000000" y2="57.692162" gradientUnits="userSpaceOnUse">
			<stop stop-color="#FF4460"/>
			<stop offset="0.531250" stop-color="#AD00FF"/>
			<stop offset="0.927083" stop-color="#31CEFF"/>
		</linearGradient>
	</defs>
	<circle id="Ellipse 32" cx="30.000000" cy="30.000000" r="30.000000" fill="transparent" fill-opacity="1.000000"/>
	<circle id="Ellipse 32" cx="30.000000" cy="30.000000" r="28.846153" stroke="url(#paint_linear_1_12722_0)" stroke-opacity="1.000000" stroke-width="2.307692"/>
	<path id="Ð" d="M17.39 40.64L25.94 40.64L25.94 39.33C24.99 38.8 23.99 38.46 22.92 38.32L24.97 32.82L32.65 32.82L34.66 38.32C34.2 38.42 33.71 38.55 33.21 38.74C32.7 38.92 32.22 39.12 31.79 39.33L31.79 40.64L42.62 40.64L42.62 39.33C42.27 39.1 41.87 38.9 41.41 38.74C40.95 38.55 40.49 38.42 40.02 38.32L31.34 16L28.77 16L19.84 38.32C19.43 38.42 19 38.55 18.56 38.74C18.15 38.9 17.76 39.1 17.39 39.33L17.39 40.64ZM31.92 30.57L25.8 30.57L28.19 24.03L28.95 20.98L29.02 20.98L29.67 23.96L31.92 30.57Z" fill="url(#paint_linear_1_12723_0)" fill-opacity="1.000000" fill-rule="evenodd"/>
</svg>
