<svg width="13.000000" height="13.000000" viewBox="0 0 13 13" fill="none" xmlns="http://www.w3.org/2000/svg" xmlns:xlink="http://www.w3.org/1999/xlink">
	<desc>
			Created with Pixso.
	</desc>
	<defs/>
	<path id="Vector" d="M12.58 11.52L7.46 6.4L12.59 1.27C12.88 0.98 12.88 0.5 12.59 0.21C12.3 -0.08 11.82 -0.08 11.53 0.21L6.4 5.34L1.27 0.21C0.98 -0.08 0.5 -0.08 0.21 0.21C-0.08 0.5 -0.08 0.98 0.21 1.27L5.34 6.4L0.21 11.53C-0.08 11.82 -0.08 12.3 0.21 12.59C0.5 12.88 0.98 12.88 1.27 12.59L6.4 7.46L11.53 12.59C11.82 12.88 12.3 12.88 12.59 12.59C12.88 12.29 12.88 11.82 12.58 11.52Z" fill="#04242B" fill-opacity="1.000000" fill-rule="nonzero"/>
</svg>
