<svg width="18.000000" height="17.000000" viewBox="0 0 18 17" fill="none" xmlns="http://www.w3.org/2000/svg" xmlns:xlink="http://www.w3.org/1999/xlink">
	<desc>
			Created with Pixso.
	</desc>
	<defs/>
	<path id="Vector" d="M15 0L3 0C1.33 0 0 1.33 0 3L0 4L18 4L18 3C18 1.33 16.66 0 15 0Z" fill="#B3BACF" fill-opacity="1.000000" fill-rule="nonzero"/>
	<path id="Vector" d="M17 4L17 14C17 15.1 16.1 16 15 16L3 16C1.89 16 1 15.1 1 14L1 4L0 4L0 14C0 15.66 1.33 17 3 17L15 17C16.66 17 18 15.66 18 14L18 4L17 4Z" fill="#B3BACF" fill-opacity="1.000000" fill-rule="nonzero"/>
	<path id="Vector" d="M6 8C6 8.55 5.55 9 5 9C4.44 9 4 8.55 4 8C4 7.44 4.44 7 5 7C5.55 7 6 7.44 6 8Z" fill="#B3BACF" fill-opacity="1.000000" fill-rule="evenodd"/>
	<path id="Vector" d="M10 8C10 8.55 9.55 9 9 9C8.44 9 8 8.55 8 8C8 7.44 8.44 7 9 7C9.55 7 10 7.44 10 8Z" fill="#B3BACF" fill-opacity="1.000000" fill-rule="evenodd"/>
	<path id="Vector" d="M14 8C14 8.55 13.55 9 13 9C12.44 9 12 8.55 12 8C12 7.44 12.44 7 13 7C13.55 7 14 7.44 14 8Z" fill="#B3BACF" fill-opacity="1.000000" fill-rule="evenodd"/>
	<path id="Vector" d="M6 12C6 12.55 5.55 13 5 13C4.44 13 4 12.55 4 12C4 11.44 4.44 11 5 11C5.55 11 6 11.44 6 12Z" fill="#B3BACF" fill-opacity="1.000000" fill-rule="evenodd"/>
	<path id="Vector" d="M10 12C10 12.55 9.55 13 9 13C8.44 13 8 12.55 8 12C8 11.44 8.44 11 9 11C9.55 11 10 11.44 10 12Z" fill="#B3BACF" fill-opacity="1.000000" fill-rule="evenodd"/>
</svg>
