<svg width="10.000000" height="15.000000" viewBox="0 0 10 15" fill="none" xmlns="http://www.w3.org/2000/svg" xmlns:xlink="http://www.w3.org/1999/xlink">
	<desc>
			Created with Pixso.
	</desc>
	<defs/>
	<path id="Vector" d="M8.53 5.58L8.53 3.65C8.53 1.63 6.95 0 5 0C3.04 0 1.46 1.63 1.46 3.65L1.46 5.58C0.54 6.51 0 7.79 0 9.12C0 11.87 2.24 14.12 5 14.12C7.75 14.12 10 11.87 10 9.12C10 7.79 9.45 6.5 8.53 5.58ZM2.05 3.65C2.05 1.95 3.37 0.58 5 0.58C6.62 0.58 7.94 1.95 7.94 3.65L7.94 5.07C7.92 5.07 7.91 5.05 7.91 5.04C7.82 4.99 7.73 4.92 7.65 4.87C6.86 4.37 5.94 4.12 5 4.12C4.05 4.12 3.13 4.37 2.34 4.87C2.25 4.92 2.17 4.99 2.08 5.04C2.08 5.05 2.07 5.07 2.05 5.07L2.05 3.65ZM5.87 9.7L5.87 11.17L4.12 11.17L4.12 9.7C3.75 9.42 3.53 8.99 3.53 8.53C3.53 7.71 4.19 7.05 5 7.05C5.8 7.05 6.46 7.71 6.46 8.53C6.46 8.99 6.25 9.42 5.87 9.7Z" fill="#04242B" fill-opacity="1.000000" fill-rule="nonzero"/>
</svg>
