<svg width="21.000000" height="24.000000" viewBox="0 0 21 24" fill="none" xmlns="http://www.w3.org/2000/svg" xmlns:xlink="http://www.w3.org/1999/xlink">
	<desc>
			Created with Pixso.
	</desc>
	<defs/>
	<path id="Vector" d="M10.33 16.77C10.23 16.64 10.08 16.5 9.92 16.5C9.35 16.5 8.87 16.75 8.5 16.96C8.38 17 8.28 17.1 8.25 17.23C8.23 17.36 8.27 17.49 8.37 17.58C8.82 17.96 9.61 18.5 10.49 18.5C11.36 18.5 12.14 17.96 12.59 17.58C12.69 17.5 12.74 17.36 12.71 17.24C12.67 17.1 12.58 17 12.46 16.97C12.1 16.75 11.62 16.5 11.04 16.5C10.9 16.5 10.74 16.64 10.64 16.77C10.55 16.85 10.41 16.85 10.33 16.77Z" fill="#04242B" fill-opacity="1.000000" fill-rule="nonzero"/>
	<path id="Vector" d="M17 11.02L17 9.45C17 9.06 16.96 8.68 16.92 8.31L15.34 7.96C15.15 7.94 14.96 7.93 14.77 7.95C14.21 8.01 13.69 8.2 13.21 8.41C12.28 8.84 11.54 9.4 11.54 9.4C11.21 9.64 11.13 10.12 11.38 10.45C11.62 10.79 12.09 10.85 12.43 10.61C12.44 10.6 12.44 10.6 12.45 10.6C12.45 10.6 13.08 10.12 13.83 9.77C14.21 9.6 14.61 9.47 14.91 9.45C15.21 9.41 15.37 9.46 15.5 9.56L15.5 10.5C13.82 10.5 12.32 11.03 11.57 12.23C11.42 12.46 11.49 12.77 11.72 12.92C11.95 13.07 12.26 13 12.41 12.77C12.41 12.77 12.41 12.76 12.42 12.76C12.56 12.52 12.76 12.33 13 12.16C13 12.19 12.99 12.22 12.99 12.25C12.99 12.66 13.33 13 13.74 13C14.16 13 14.49 12.66 14.49 12.25C14.49 12 14.37 11.79 14.19 11.64C14.58 11.55 15.02 11.5 15.5 11.5L15.5 12.73C15.5 14.3 14.67 16.2 13.58 17.65C13.04 18.37 12.42 18.99 11.86 19.4C11.29 19.81 10.78 20 10.5 20C10.21 20 9.7 19.81 9.13 19.4C8.57 18.99 7.95 18.37 7.41 17.65C6.32 16.2 5.5 14.3 5.5 12.73L5.5 11.5C5.97 11.5 6.41 11.55 6.8 11.64C6.62 11.79 6.5 12 6.5 12.25C6.5 12.66 6.83 13 7.25 13C7.66 13 8 12.66 8 12.25C8 12.22 7.99 12.19 7.99 12.16C8.23 12.33 8.42 12.53 8.57 12.76C8.7 12.99 9.02 13.07 9.25 12.93C9.49 12.79 9.57 12.48 9.42 12.24C9.41 12.24 9.41 12.23 9.41 12.23C8.66 11.02 7.17 10.5 5.49 10.49L5.49 9.55C5.61 9.45 5.77 9.41 6.07 9.43C6.37 9.47 6.77 9.6 7.15 9.77C7.9 10.11 8.54 10.59 8.54 10.59C8.86 10.85 9.33 10.79 9.59 10.46C9.84 10.14 9.79 9.66 9.46 9.41C9.45 9.4 9.45 9.39 9.45 9.39C9.45 9.39 8.71 8.83 7.77 8.41C7.3 8.19 6.78 8 6.21 7.95C6.03 7.93 5.83 7.93 5.64 7.95C5.82 7.06 6.17 6.3 6.66 5.69C6.83 5.53 6.79 5.56 7.14 5.31C7.8 4.85 8.33 4.79 8.54 4.78C9.82 5.74 11.32 5.89 12.58 6C13.96 6.12 15 6.26 15.65 7C15.78 7.14 15.95 7.22 16.12 7.25L16.32 7.25C16.46 7.22 16.59 7.16 16.71 7.06C17.02 6.79 17.05 6.32 16.78 6.01C15.68 4.75 14.1 4.62 12.72 4.5C11.34 4.37 10.12 4.25 9.21 3.43C9.08 3.31 8.9 3.25 8.71 3.25C8.71 3.25 7.44 3.2 6.29 4.06C5.69 4.52 5.23 5.12 5.17 5.16C4.4 6.35 4 7.81 4 9.45L4 11.04C3.45 11.2 3.16 11.79 3.16 12.39C3.16 13.41 3.52 14.29 4.22 14.47C4.58 15.95 5.32 17.37 6.21 18.55C6.3 18.66 6.41 18.73 6.5 18.83C6.5 18.84 6.5 18.85 6.5 18.85L6.5 22.24C6.49 22.66 6.82 23 7.24 23C7.65 23 7.99 22.68 8 22.26C8 22.25 8 22.25 8 22.24L8 20.35C8.08 20.42 8.16 20.54 8.25 20.6C8.96 21.14 9.7 21.5 10.5 21.5C11.29 21.5 12.03 21.14 12.75 20.61C12.83 20.54 12.91 20.43 13 20.35L13 22.25C12.99 22.66 13.32 23 13.74 23C14.15 23.01 14.49 22.68 14.5 22.27C14.5 22.26 14.5 22.25 14.5 22.25L14.5 18.85C14.5 18.85 14.5 18.84 14.5 18.84C14.58 18.73 14.69 18.67 14.78 18.56C15.66 17.37 16.41 15.96 16.76 14.5L16.79 14.5C17.54 14.35 17.91 13.45 17.91 12.39C17.91 11.77 17.59 11.14 17 11.02Z" fill="#04242B" fill-opacity="1.000000" fill-rule="nonzero"/>
	<path id="Vector" d="M19.24 4.46C17.78 1.68 15.04 0 10.75 0C6.45 0 3.61 1.66 2.02 4.43C0.42 7.2 0 10.95 0 15.25L0 22.25C-0.01 22.66 0.32 23 0.74 23C1.15 23.01 1.49 22.68 1.5 22.27C1.5 22.26 1.5 22.25 1.5 22.25L1.5 15.25C1.5 11.04 1.96 7.54 3.32 5.18C4.67 2.83 6.82 1.5 10.75 1.5C12.15 1.5 13.3 1.66 14.26 1.99C14.27 1.99 14.28 1.99 14.28 1.99C16.01 2.57 17.12 3.65 17.91 5.16C19.15 7.5 19.5 11.04 19.5 15.25L19.5 22.25C19.49 22.66 19.82 23 20.24 23C20.65 23.01 20.99 22.68 21 22.27C21 22.26 21 22.25 21 22.25L21 15.25C21 10.96 20.7 7.23 19.24 4.46Z" fill="#04242B" fill-opacity="1.000000" fill-rule="nonzero"/>
</svg>
