<svg width="25" height="21" viewBox="0 0 25 21" fill="none" xmlns="http://www.w3.org/2000/svg"
	xmlns:xlink="http://www.w3.org/1999/xlink">
	<path id="Vector"
		d="M11.99 0C6.33 0 1.34 3.92 0.02 9.06C-0.09 9.46 0.16 9.87 0.56 9.98C0.96 10.08 1.37 9.84 1.47 9.44C2.61 5 7.03 1.5 11.99 1.5C16.95 1.5 21.38 5.01 22.52 9.43C22.63 9.83 23.03 10.08 23.44 9.97C23.84 9.87 24.08 9.46 23.98 9.06C22.65 3.92 17.65 0 11.99 0ZM12 4C9.33 4 7.16 6.17 7.16 8.83C7.16 11.49 9.33 13.66 12 13.66C14.66 13.66 16.83 11.49 16.83 8.83C16.83 6.17 14.66 4 12 4Z"
		fill="#919AB6" fill-opacity="1.000000" fill-rule="nonzero" />
</svg>