<svg width="12.000000" height="12.000000" viewBox="0 0 12 12" fill="none" xmlns="http://www.w3.org/2000/svg" xmlns:xlink="http://www.w3.org/1999/xlink">
	<desc>
			Created with Pixso.
	</desc>
	<defs/>
	<path id="Vector" d="M11 0L8.41 0C7.51 0 7.07 1.08 7.7 1.7L8.45 2.46L5.62 5.3C5.33 5.59 5.33 6.08 5.62 6.37C5.91 6.66 6.38 6.66 6.67 6.37L9.51 3.53L10.29 4.29C10.91 4.91 12 4.48 12 3.58L12 1C12 0.45 11.54 0 11 0Z" fill="#FFFFFF" fill-opacity="1.000000" fill-rule="nonzero"/>
	<path id="Vector" d="M11.5 6C11.21 6 11 6.21 11 6.5L11 7L11 7.5L11 9C11 10.09 10.09 11 9 11L3 11C1.9 11 1 10.09 1 9L1 3C1 1.9 1.9 1 3 1L4.5 1L5 1L5.5 1C5.78 1 6 0.78 6 0.5C6 0.21 5.78 0 5.5 0L5 0L4.5 0L3 0C1.33 0 0 1.33 0 3L0 9C0 10.66 1.33 12 3 12L9 12C10.66 12 12 10.66 12 9L12 7.5L12 7L12 6.5C12 6.21 11.78 6 11.5 6Z" fill="#FFFFFF" fill-opacity="1.000000" fill-rule="nonzero"/>
</svg>
